<?xml version="1.0" encoding="UTF-8" standalone="no"?>
<!-- Created with Inkscape (http://www.inkscape.org/) -->

<svg
   xmlns:dc="http://purl.org/dc/elements/1.1/"
   xmlns:cc="http://creativecommons.org/ns#"
   xmlns:rdf="http://www.w3.org/1999/02/22-rdf-syntax-ns#"
   xmlns:svg="http://www.w3.org/2000/svg"
   xmlns="http://www.w3.org/2000/svg"
   xmlns:sodipodi="http://sodipodi.sourceforge.net/DTD/sodipodi-0.dtd"
   xmlns:inkscape="http://www.inkscape.org/namespaces/inkscape"
   version="1.1"
   id="svg3732"
   xml:space="preserve"
   width="306.50534"
   height="89.565742"
   viewBox="0 0 306.50534 89.565741"
   sodipodi:docname="perun_logo_white.svg"
   inkscape:version="0.92.3 (d244b95, 2018-08-02)"><metadata
     id="metadata3738"><rdf:RDF><cc:Work
         rdf:about=""><dc:format>image/svg+xml</dc:format><dc:type
           rdf:resource="http://purl.org/dc/dcmitype/StillImage" /><dc:title></dc:title></cc:Work></rdf:RDF></metadata><defs
     id="defs3736" /><sodipodi:namedview
     pagecolor="#ffffff"
     bordercolor="#666666"
     borderopacity="1"
     objecttolerance="10"
     gridtolerance="10"
     guidetolerance="10"
     inkscape:pageopacity="0"
     inkscape:pageshadow="2"
     inkscape:window-width="1920"
     inkscape:window-height="1010"
     id="namedview3734"
     showgrid="false"
     fit-margin-top="0"
     fit-margin-left="0"
     fit-margin-right="0"
     fit-margin-bottom="0"
     inkscape:zoom="1.2477194"
     inkscape:cx="198.8236"
     inkscape:cy="-46.237273"
     inkscape:window-x="0"
     inkscape:window-y="33"
     inkscape:window-maximized="1"
     inkscape:current-layer="g3740" /><g
     id="g3740"
     inkscape:groupmode="layer"
     inkscape:label="perun_0"
     transform="matrix(1.3333333,0,0,-1.3333333,-27.030799,113.1138)"><path
       d="m 36.1293,81.4326 10.7251,-0.0151 -7.6972,-20.099 7.3043,1.2166 -8.458,-20.0126 7.564,1.3246 -5.8904,-15.1846 -1.3448,0.6537 -11.819,5.7444 -3.1201,12.8752 -3.1201,12.8747 7.9282,10.311 z m 27.015,-1.285 7.2881,-9.0845 L 78.7235,60.7303 76.055,47.863 73.3867,34.996 61.7689,29.2839 50.1508,23.5721 42.8275,27.1312 61.9183,46.6288 51.3901,44.7211 64.0757,65.4707 53.1309,63.7294 Z"
       style="fill:#ffffff;fill-opacity:1;fill-rule:evenodd;stroke:none"
       id="path3742"
       inkscape:connector-curvature="0" /><path
       d="m 118.2555,54.2673 c -0.005,-2.4576 -1.2019,-4.172 -3.5921,-5.1537 -1.7371,-0.7055 -4.3622,-1.0533 -7.8891,-1.0533 -0.8192,0 -1.9582,0.0204 -3.4435,0.0615 -1.4721,0.0408 -2.541,0.0612 -3.1935,0.0612 l -0.0207,-10.9108 h -9.3178 l 0.0774,38.882 h 9.3175 l -0.002,-1.1044 c 2.1665,0.2353 4.3469,0.4805 6.5137,0.7464 2.736,0.3172 4.9025,0.4804 6.5135,0.4804 3.3879,0 5.0799,-1.2268 5.0751,-3.6912 z m -9.3555,1.8814 0.0309,14.2792 -8.7483,-0.1125 -0.0349,-16.4367 h 5.7765 c 1.9857,0 2.973,0.7568 2.9758,2.27 z m 42.3009,-15.084 c -0.005,-2.4945 -1.757,-3.7426 -5.256,-3.7426 h -16.066 c -3.4985,0 -5.2463,1.2475 -5.2418,3.7426 l 0.0425,22.7724 c 0.005,2.495 1.7569,3.7426 5.256,3.7426 h 16.0659 c 3.4994,0 5.2464,-1.2476 5.2419,-3.7426 l -0.021,-11.1152 -2.5586,-1.8916 H 133.5699 L 133.554,42.353 h 8.7483 l 0.009,5.0312 h 8.9008 l -0.0116,-6.3195 z m -8.8745,14.2341 0.0136,7.2499 h -8.748 l -0.0136,-7.2499 z m 42.2215,-0.358 h -9.2341 l 0.013,6.9126 -7.3599,-0.1125 -0.0456,-24.4188 h -9.3175 l 0.0567,30.2576 h 9.3175 l -0.002,-1.1044 c 1.9307,0.2557 3.8472,0.5113 5.7362,0.7772 2.3057,0.2965 4.2361,0.4499 5.7773,0.4499 3.3882,0 5.0799,-1.2271 5.0754,-3.6913 z m 30.7193,-17.6187 h -9.2758 l 0.002,1.0533 c -2.1387,-0.2659 -4.3055,-0.5215 -6.4723,-0.7874 -2.6249,-0.2965 -4.805,-0.4499 -6.5132,-0.4499 -3.3882,0 -5.08,1.2475 -5.0751,3.7528 l 0.0498,26.6888 h 9.2342 l -0.0459,-24.562 8.8313,0.1432 0.0459,24.4188 h 9.2756 z m 34.8347,0 h -9.3591 l 0.0459,24.5313 -8.748,-0.1125 -0.0456,-24.4188 h -9.3175 l 0.0564,30.2576 h 9.3175 l -0.002,-1.1044 c 2.1665,0.2557 4.333,0.5011 6.472,0.7463 2.6527,0.3172 4.847,0.4808 6.5552,0.4808 3.3879,0 5.0799,-1.2271 5.0754,-3.6913 z"
       style="fill:#ffffff;fill-opacity:1;fill-rule:nonzero;stroke:none"
       id="path3744"
       inkscape:connector-curvature="0" /><g
       id="g3746"
       transform="matrix(0,-1.02802,1.02786,0,0,0)"><path
         d="m -81.7926,46.5772 0.0224,17.1774 19.7779,-12.064 -1.6943,10.6481 20.1844,-12.3418 -1.8558,10.243 25.1271,-24.6067 -22.4212,8.6987 1.2884,-7.3585 -19.4669,8.229 1.1837,-7.1067 z"
         style="fill:none;stroke:#ffffff;stroke-width:1.45959997;stroke-linecap:butt;stroke-linejoin:miter;stroke-miterlimit:22.92558479;stroke-dasharray:none;stroke-opacity:1"
         id="path3748"
         inkscape:connector-curvature="0" /></g></g></svg>